<?xml version="1.0" encoding="UTF-8"?>
<svg id="CB-Logo-Solo" xmlns="http://www.w3.org/2000/svg" xmlns:xlink="http://www.w3.org/1999/xlink" viewBox="0 0 500 500">
  <defs>
    <style>
      .cls-1 {
        fill: #070707;
      }

      .cls-2 {
        fill: #726e60;
        opacity: .67;
      }

      .cls-3 {
        fill: url(#linear-gradient-6);
      }

      .cls-4 {
        fill: url(#linear-gradient-9);
      }

      .cls-5 {
        fill: url(#linear-gradient-4);
      }

      .cls-6 {
        fill: url(#linear-gradient-3);
      }

      .cls-7 {
        fill: url(#linear-gradient-2);
      }

      .cls-8 {
        fill: url(#linear-gradient);
      }

      .cls-9 {
        opacity: .22;
      }

      .cls-9, .cls-10, .cls-11 {
        fill: #fff;
      }

      .cls-10 {
        opacity: .6;
      }

      .cls-12 {
        fill: #35332c;
      }

      .cls-13 {
        fill: url(#linear-gradient-7);
      }

      .cls-13, .cls-14 {
        opacity: .61;
      }

      .cls-15 {
        fill: url(#linear-gradient-8);
        opacity: .57;
      }

      .cls-16 {
        fill: url(#linear-gradient-5);
        opacity: .8;
      }

      .cls-17 {
        fill: url(#linear-gradient-15);
        opacity: .75;
      }

      .cls-14 {
        fill: url(#linear-gradient-11);
      }

      .cls-18 {
        fill: url(#linear-gradient-10);
      }

      .cls-19 {
        fill: url(#linear-gradient-12);
      }

      .cls-20 {
        fill: url(#linear-gradient-13);
      }

      .cls-21 {
        fill: url(#linear-gradient-14);
      }

      .cls-22 {
        fill: #965427;
        opacity: .94;
      }

      .cls-23 {
        opacity: .32;
      }
    </style>
    <linearGradient id="linear-gradient" x1="64.43" y1="-20.87" x2="633.32" y2="586.19" gradientTransform="translate(500) rotate(-180) scale(1 -1)" gradientUnits="userSpaceOnUse">
      <stop offset=".01" stop-color="#fff"/>
      <stop offset=".22" stop-color="#0054eb"/>
      <stop offset=".22" stop-color="#0053e8"/>
      <stop offset=".26" stop-color="#0044c6"/>
      <stop offset=".3" stop-color="#0037a9"/>
      <stop offset=".34" stop-color="#002d91"/>
      <stop offset=".39" stop-color="#00257f"/>
      <stop offset=".45" stop-color="#002072"/>
      <stop offset=".53" stop-color="#001c6b"/>
      <stop offset=".69" stop-color="#001c69"/>
      <stop offset=".79" stop-color="#0033a0"/>
      <stop offset=".93" stop-color="#0050e4"/>
      <stop offset="1" stop-color="#005cff"/>
    </linearGradient>
    <linearGradient id="linear-gradient-2" x1="-148.37" y1="-146.69" x2="309.54" y2="226.89" gradientTransform="translate(500) rotate(-180) scale(1 -1)" gradientUnits="userSpaceOnUse">
      <stop offset=".01" stop-color="#00d5ff"/>
      <stop offset=".22" stop-color="#00d2fe"/>
      <stop offset=".36" stop-color="#00c9fd"/>
      <stop offset=".48" stop-color="#00bafa"/>
      <stop offset=".58" stop-color="#00a5f7"/>
      <stop offset=".68" stop-color="#008af3"/>
      <stop offset=".77" stop-color="#0068ee"/>
      <stop offset=".82" stop-color="#0054eb"/>
      <stop offset=".85" stop-color="#004bd7"/>
      <stop offset=".93" stop-color="#0035a3"/>
      <stop offset="1" stop-color="#001c69"/>
    </linearGradient>
    <linearGradient id="linear-gradient-3" x1="71.75" y1="29.19" x2="387.13" y2="263.26" xlink:href="#linear-gradient-2"/>
    <linearGradient id="linear-gradient-4" x1="38.83" y1="10.32" x2="440.33" y2="364.96" gradientTransform="translate(500) rotate(-180) scale(1 -1)" gradientUnits="userSpaceOnUse">
      <stop offset=".01" stop-color="#fff"/>
      <stop offset=".15" stop-color="#0054eb"/>
      <stop offset=".18" stop-color="#004cd6"/>
      <stop offset=".25" stop-color="#003595"/>
      <stop offset=".32" stop-color="#002260"/>
      <stop offset=".38" stop-color="#001336"/>
      <stop offset=".44" stop-color="#000818"/>
      <stop offset=".49" stop-color="#000206"/>
      <stop offset=".52" stop-color="#000"/>
      <stop offset=".62" stop-color="#000619"/>
      <stop offset=".82" stop-color="#001758"/>
      <stop offset=".87" stop-color="#001c69"/>
      <stop offset=".88" stop-color="#05206c"/>
      <stop offset=".9" stop-color="#142f77"/>
      <stop offset=".92" stop-color="#2c4689"/>
      <stop offset=".93" stop-color="#4f67a3"/>
      <stop offset=".95" stop-color="#7b91c3"/>
      <stop offset=".98" stop-color="#b0c4ea"/>
      <stop offset=".98" stop-color="#c7dafb"/>
    </linearGradient>
    <linearGradient id="linear-gradient-5" x1="553.41" y1="288.45" x2="248.03" y2="66.07" xlink:href="#linear-gradient-2"/>
    <linearGradient id="linear-gradient-6" x1="171.73" y1="346.45" x2="-565.03" y2="19.41" gradientTransform="translate(500) rotate(-180) scale(1 -1)" gradientUnits="userSpaceOnUse">
      <stop offset="0" stop-color="#000"/>
      <stop offset="0" stop-color="#110602"/>
      <stop offset=".03" stop-color="#45190a"/>
      <stop offset=".05" stop-color="#732b11"/>
      <stop offset=".08" stop-color="#9a3917"/>
      <stop offset=".1" stop-color="#b9451b"/>
      <stop offset=".13" stop-color="#d24e1f"/>
      <stop offset=".16" stop-color="#e35421"/>
      <stop offset=".19" stop-color="#ed5823"/>
      <stop offset=".22" stop-color="#f15a24"/>
    </linearGradient>
    <linearGradient id="linear-gradient-7" x1="89.27" y1="405.8" x2="50.37" y2="213.22" gradientTransform="translate(500) rotate(-180) scale(1 -1)" gradientUnits="userSpaceOnUse">
      <stop offset="0" stop-color="#f79738"/>
      <stop offset="1" stop-color="#fce163"/>
    </linearGradient>
    <linearGradient id="linear-gradient-8" x1="102.92" y1="342.41" x2="31.96" y2="192.91" gradientTransform="translate(500) rotate(-180) scale(1 -1)" gradientUnits="userSpaceOnUse">
      <stop offset="0" stop-color="#f06428"/>
      <stop offset=".24" stop-color="#f27d33"/>
      <stop offset=".74" stop-color="#f8bd52"/>
      <stop offset="1" stop-color="#fce163"/>
    </linearGradient>
    <linearGradient id="linear-gradient-9" x1="274.51" y1="373.32" x2="-89.3" y2="268.32" gradientTransform="translate(500) rotate(-180) scale(1 -1)" gradientUnits="userSpaceOnUse">
      <stop offset=".11" stop-color="#000"/>
      <stop offset=".16" stop-color="#45190a"/>
      <stop offset=".22" stop-color="#823013"/>
      <stop offset=".27" stop-color="#b2421a"/>
      <stop offset=".31" stop-color="#d44f1f"/>
      <stop offset=".35" stop-color="#e95722"/>
      <stop offset=".37" stop-color="#f15a24"/>
      <stop offset=".4" stop-color="#f16623"/>
      <stop offset=".49" stop-color="#f48f22"/>
      <stop offset=".59" stop-color="#f7b122"/>
      <stop offset=".69" stop-color="#f9cc21"/>
      <stop offset=".78" stop-color="#fadf21"/>
      <stop offset=".89" stop-color="#fbea21"/>
      <stop offset="1" stop-color="#fcee21"/>
    </linearGradient>
    <linearGradient id="linear-gradient-10" x1="239.72" y1="377.57" x2="-398.29" y2="139.26" gradientTransform="translate(500) rotate(-180) scale(1 -1)" gradientUnits="userSpaceOnUse">
      <stop offset="0" stop-color="#000"/>
      <stop offset=".02" stop-color="#1e0b04"/>
      <stop offset=".06" stop-color="#5d230e"/>
      <stop offset=".1" stop-color="#923615"/>
      <stop offset=".14" stop-color="#bb451b"/>
      <stop offset=".17" stop-color="#d85020"/>
      <stop offset=".2" stop-color="#ea5723"/>
      <stop offset=".22" stop-color="#f15a24"/>
    </linearGradient>
    <linearGradient id="linear-gradient-11" x1="131.42" y1="316.36" x2="192.48" y2="316.36" xlink:href="#linear-gradient-7"/>
    <linearGradient id="linear-gradient-12" x1="107.91" y1="196.99" x2="392.29" y2="524.67" gradientTransform="translate(500) rotate(-180) scale(1 -1)" gradientUnits="userSpaceOnUse">
      <stop offset="0" stop-color="#fff"/>
      <stop offset=".19" stop-color="#5eb338"/>
      <stop offset=".34" stop-color="#509f34"/>
      <stop offset=".66" stop-color="#2e6b2a"/>
      <stop offset="1" stop-color="#042d1e"/>
    </linearGradient>
    <linearGradient id="linear-gradient-13" x1="192.57" y1="-100.28" x2="292.22" y2="415.35" gradientTransform="translate(500) rotate(-180) scale(1 -1)" gradientUnits="userSpaceOnUse">
      <stop offset="0" stop-color="#042d1e"/>
      <stop offset=".15" stop-color="#1e5325"/>
      <stop offset=".31" stop-color="#35752c"/>
      <stop offset=".48" stop-color="#479031"/>
      <stop offset=".65" stop-color="#53a335"/>
      <stop offset=".82" stop-color="#5baf37"/>
      <stop offset="1" stop-color="#5eb338"/>
    </linearGradient>
    <linearGradient id="linear-gradient-14" x1="204.95" y1="270.19" x2="645.66" y2="927.38" gradientTransform="translate(500) rotate(-180) scale(1 -1)" gradientUnits="userSpaceOnUse">
      <stop offset="0" stop-color="#042d1e"/>
      <stop offset=".42" stop-color="#2e6b2a"/>
      <stop offset=".81" stop-color="#509f34"/>
      <stop offset="1" stop-color="#5eb338"/>
    </linearGradient>
    <linearGradient id="linear-gradient-15" x1="82.25" y1="99.69" x2="478.38" y2="463.92" gradientTransform="translate(500) rotate(-180) scale(1 -1)" gradientUnits="userSpaceOnUse">
      <stop offset=".19" stop-color="#000"/>
      <stop offset=".7" stop-color="#042d1e"/>
      <stop offset=".83" stop-color="#052e1e"/>
      <stop offset=".87" stop-color="#09351f"/>
      <stop offset=".91" stop-color="#114121"/>
      <stop offset=".93" stop-color="#1d5225"/>
      <stop offset=".96" stop-color="#2b6829"/>
      <stop offset=".98" stop-color="#3e832e"/>
      <stop offset=".99" stop-color="#53a334"/>
      <stop offset="1" stop-color="#5eb338"/>
    </linearGradient>
  </defs>
  <g id="CB-Logo-Solo-2" data-name="CB-Logo-Solo">
    <path d="M5.69,221.74c-.78-.07-1.39.67-1.15,1.41,1.38,4.38,2.92,8.58,4.6,12.63,3.37,8.09,7.34,15.51,11.93,22.34.21.32.43.63.64.95,16.42,23.92,40.56,40.42,73.14,52.16,0,0,2.89,1.02,1.94,2.47-.06.08-.11.16-.16.23-30.49,46.81-42.2,101.43-41.93,163.64h38.71s-.17-50.39-.17-50.39c24.62,24.07,42.43,32.38,70.47,39.62,21.2,2.87,37.48,4.71,56.73,4.03-13.69-10.01-26.98-25.13-22.66-38.06,40.43,31.07,93.3,39.81,147.7,46.57.22-27.12,3.78-49.41-7.69-77.49-.29-5.72,8.25-10.89,14.82-12.13,6.57-1.24,52.29-9.74,67.77-36l-10.1-10.3c-4.05-6.35,3.96-8.19,12.27-7.24,8.3.95,26.04,27.04,26.21,65v.08c28.62-28.22,40.14-85.76,25.2-126.99-.1-.28-.21-.57-.32-.85-.47-1.28-.97-2.53-1.5-3.76-.08-.19-.16-.37-.24-.56-16.65-38.5-45.59-50.15-55.06-54.14l-3.24-1.74-8.13-4.36c60.97-26.74,86.9-80.33,91.92-136.74,0-.05.01-.11.01-.16.21-2.34.38-4.68.5-7.03.15-2.46.25-4.91.32-7.37-.01.02-.42.61-1.19,1.62-.17.22-.36.47-.57.73-1.03,1.31-2.51,3.08-4.39,5.09-9.72,10.35-30.35,27.05-57.45,19.94-.1-.03-.21-.06-.32-.08-3.9-1.04-7.92-2.58-12.07-4.7-.83-.54-1.64-1.09-2.41-1.67-2.77-2.05-5.21-4.37-7.35-6.86-.13-.14-.25-.28-.36-.42-14.2-16.85-15.45-41.41-15.5-48.56,0-1.09-.95-1.94-2.03-1.85-53.24,4.43-99.45,15.23-143.26,38.53-34.38,22.73-66.21,50.46-96.13,82-5.93,6.24-11.79,12.64-17.56,19.17-45.55,41.98-88.58,65.27-131.9,61.26Z"/>
    <g id="Hat">
      <path class="cls-8" d="M5.66,221.68c-.77-.04-1.36.7-1.12,1.44,1.45,4.45,3.01,8.67,4.68,12.66,3.49,8.35,7.46,15.73,11.84,22.34.21.32.43.63.64.95,18.45,27.2,44.25,41.07,74.06,54.48l1.38-.4c35.96-53.75,84.57-89.22,147.13-111.07.04-.01.07-.02.11-.03,62.26-15.34,101.1-8.28,160.68,6.71.24.06.49.04.72-.06,50.85-21.69,85.47-65.73,91.57-136.59,0-.05.01-.11.01-.16.2-2.32.37-4.66.5-7.03.14-2.43.25-4.89.32-7.37-.01.02-.42.61-1.19,1.62-.17.22-.36.47-.57.73-1.03,1.31-2.51,3.08-4.39,5.09-9.8,10.46-30.61,27.45-57.45,19.94-.1-.03-.21-.06-.32-.08-4.65-1.34-9.48-3.4-14.46-6.36l-.11-.07c-2.74-1.96-5.15-4.26-7.27-6.81-.13-.14-.25-.28-.36-.42-13.16-16.15-15.13-41.58-15.43-48.68-.04-1.05-.94-1.84-1.98-1.76-62.88,4.42-119.08,16.92-171.59,57.29-6.55,5.04-13.21,10.04-19.6,15.48-2.58,2.2-5.13,4.43-7.67,6.72-3.72,3.35-7.39,6.81-11.02,10.35l-29.38,30.06-18.3,18.72-7.24,7.41s-.05.05-.08.08c-51.31,43.01-83.17,57.09-124.14,54.83Z"/>
      <path class="cls-7" d="M195.81,100.23c82.49-23.95,180.73-21.73,220.43,52.92.21-.04,8.59-1.79,11.34-2.79,29.37-9.77,46.73-36.69,58.71-62.23-12.02,6.21-26.44,10.37-40.92,9.09-40.4-3.56-63.51-32.9-67.87-62.95-1.17.1-28.13,2.46-42.09,5.3-.23.05-.47.1-.71.15-36.84,7.54-109.51,36.79-109.51,36.79-8.36,5.95-19.18,13.99-29.38,23.73Z"/>
      <path class="cls-6" d="M194.78,100.94c4.09-2.81,8.21-5.54,12.35-8.17,39.74-25.32,81.5-42.61,125.28-51.86.24-.05.48-.1.71-.15,13.42-2.82,27.04-4.87,40.85-6.17,1.18-.11,2.36-.22,3.54-.32,4.66,33.02,31.49,59.74,66.14,62.9,14.47,1.32,28.34-1.64,40.36-7.85,3.69-1.9,8.98-4.71,12.29-7.19,1.44-8.86,1.91-24.57,1.91-24.57-10.81,14.11-38.45,42.67-77.76,21.29h0c-20.54-13.87-23.23-47.02-23.72-56.14-.06-1.17-1.05-2.08-2.22-2.05-65.2,1.58-122.86,21.89-171.4,57.38-6.67,4.87-13.21,10.04-19.6,15.48l-8.71,7.43Z"/>
      <path class="cls-5" d="M498.2,57.56s-7.02,20.16-12.29,31.39c-11.98,25.54-30.97,53.11-59.48,61.77-14.12,4.29-37.15,5.93-44.29,6.44-29.25,2.09-64.16,1.83-159.57,38.01-87.58,37.36-83.88,70.76-143.19,70.76s-59-17.57-65.79-20.53c17.02,33.35,41.36,49.55,83.03,68.53,36.02-54.2,86.62-90.17,149.51-112.12,70.49-19.29,106.1-5.36,159.3,7.05,54.44-23.09,83.32-67.45,90.85-126.73,1.09-6.95,1.59-15.51,1.91-24.57Z"/>
      <path class="cls-16" d="M5.8,221.68c-.84-.05-1.48.76-1.23,1.57,1.38,4.35,2.9,8.52,4.57,12.53.03,0,.06,0,.09,0,88.2-6.16,151.66-93.54,151.66-93.54,0,0,23.82-31.43,23.9-31.65l-47.67,48.78-7.28,7.45c-51.28,43-83.13,57.1-124.05,54.88Z"/>
    </g>
    <g id="Beak">
      <path id="beack_main" data-name="beack main" class="cls-3" d="M448.72,401.26s.19-5.69-1.62-17.58c-1.18-7.76-3.59-23.48-15.04-37.14-1.16-1.38-15.84-18.42-38.57-21.8-8.47-1.26-11.52.35-22.93-2.05-9.48-2-16.38-3.45-23.4-8.59-11.32-8.28-9.58-16.34-20.95-23.18-1.55-.93-4.97-2.82-5.17-5.71-.22-3.19,5.28-7.17,22.47-31.09,14.56-20.27,21.84-30.4,22.93-31.29,3.17-2.58,6.59-4.57,10.1-6.09,6.38-2.77,13.04-3.98,18.95-4.41,9.27-.67,16.76.35,18.24.9,38.53,14.49,58.87,47.81,64.4,76.26,7.53,41.57-4.19,87.04-29.41,111.74Z"/>
      <path class="cls-13" d="M395.5,212.35c6.34-.45,12.43-.18,18.07.87,18.17,5.03,47.26,26.47,58.31,55.87,17.92,39.08,7.29,103.69-23.15,132.17,30.21-53.26,35.83-154.24-53.23-188.91Z"/>
      <path id="beak_highlight_2" data-name="beak highlight 2" class="cls-15" d="M448.72,401.26c8.79-14.94,29.18-56.94,18.34-107.96-12.12-57-55.64-75.15-71.57-80.95-5.91.42-12.57,1.64-18.95,4.41,67.71,16.75,111.7,86.19,72.18,184.5Z"/>
      <ellipse id="nostral" class="cls-12" cx="384.98" cy="237.23" rx="8.44" ry="9.8"/>
      <path d="M381.18,245.93c1.14.68,2.44,1.05,3.81,1.05,4.66,0,8.44-4.39,8.44-9.8,0-5-3.23-9.12-7.39-9.72,2.75,1.62,4.63,4.92,4.63,8.74,0,5.41-3.78,9.8-8.44,9.8-.35,0-.7-.03-1.05-.08Z"/>
      <path class="cls-2" d="M376.54,237.19c0,4.17,2.24,7.73,5.4,9.14-2.39-1.72-3.98-4.8-3.98-8.32,0-5.41,3.78-9.8,8.44-9.8,1.07,0,2.09.23,3.03.66-1.29-.94-2.82-1.48-4.46-1.48-4.67,0-8.44,4.39-8.44,9.8Z"/>
      <path class="cls-4" d="M299.65,370.52c12.03,12.74,26.48,16.28,33.65,17.93,6.78,1.22,19.29,1.27,19.29,1.27,37.38-7.36,57.95-19.91,67.77-36-11.07-9.61-21.24-14.08-30.33-16.28-10.23-2.47-19.1-2.05-26.34-2.81-17.83-1.87-23.43-5.23-32.32-18.42-3.31-3.76-5.86-7.88-12.18-13.78-4.62-4.32-6.93-6.48-9.08-6.81-6.86-1.03-16.58,8.69-21.97,21.76-.63,1.53-1.21,3.11-1.7,4.72-.06.2-.12.39-.18.59-.12.39-.23.77-.33,1.16-.08.29-.16.59-.23.88-.25.97-.47,1.96-.66,2.94-.06.27-.11.54-.15.8-.1.55-.19,1.09-.27,1.64-.04.24-.07.49-.1.73-.13.97-.22,1.94-.28,2.92-1.23,19.11,11.29,32.37,15.44,36.76Z"/>
      <path class="cls-18" d="M420.35,353.72c-15.71,7.45-51.02,24.62-75.17,20.29-8.21-1.89-24.73-5.94-38.51-20.52-4.31-4.56-16.47-17.44-17.67-36.1-.63,1.53-1.21,3.11-1.7,4.72-.06.2-.12.39-.18.59-.12.39-.23.77-.33,1.16-.08.29-.16.59-.23.88-.25.97-.47,1.96-.66,2.94-.06.27-.11.54-.15.8-.1.55-.19,1.09-.27,1.64-.04.24-.07.49-.1.73-.13.97-.22,1.94-.28,2.92-1.23,19.11,11.29,32.37,15.44,36.76,12.03,12.74,26.48,16.28,33.65,17.93,6.78,1.22,8.98,1.35,19.25,1.12,21.53-3.09,60.97-18.86,66.93-35.85Z"/>
      <path class="cls-22" d="M407.94,367.93c10.64-7.4,12.41-14.21,12.41-14.21-14.2-11.89-25.77-16.53-41.86-18.11,22.21,6.56,33.85,24.18,29.44,32.32Z"/>
      <path class="cls-14" d="M307.52,295.68c2.37,4.03,5.12,8.08,8.23,12.05,17.85,22.75,41.04,34.58,52.82,27.27-1.75-.09-3.42-.21-5.02-.37-17.83-1.88-23.43-5.23-32.32-18.42-3.31-3.76-5.86-7.88-12.18-13.78-4.62-4.32-6.93-6.48-9.08-6.81-.79-.12-1.61-.09-2.46.06Z"/>
    </g>
    <g id="head">
      <path class="cls-19" d="M53.48,477.61l39.92-.02.3-49.3c30.89,34.96,73.58,45.81,126.9,42.42,0,0-25.96-18.25-22.67-38.07,32.46,27.49,87.54,38.84,147.7,46.58.01-.18.03-.35.04-.52.03-.39.06-.77.08-1.15,1.94-27.72.45-45.98-1.73-57.61,0-.01,0-.03-.01-.04-.76-4.1-1.62-7.38-2.44-9.96-.26-.83-.52-1.58-.77-2.27-.09-.27-.2-.52-.29-.77-.33-.86-.65-1.6-.93-2.23-.05-.1-.09-.2-.15-.3,0-.01,0-.02,0-.03-.88-1.86-1.47-2.62-1.47-2.62-6.69-1-13.09-2.75-19.08-5.14-6-2.38-11.59-5.4-16.65-8.95-14.07-9.83-24.04-23.63-27.29-38.78-.1-.44-.19-.87-.27-1.31-.05-.24-.09-.47-.13-.71-.09-.52-.18-1.05-.26-1.58h0c-.16-1.14-.28-2.27-.36-3.42-.13-1.65-.17-3.31-.12-4.98.02-.75.06-1.5.11-2.26.16-2.23.47-4.48.95-6.72.2-.96.43-1.93.69-2.89.61-2.24,1.38-4.48,2.32-6.72,1.5-3.58,3.43-7.14,5.83-10.66.39-.58.8-1.16,1.22-1.74,8.21-10.15,15.28-13.62,25.51-21.6,3.06-2.39,34.87-48.75,48.49-63.47,13.62-14.72,46.68-12.07,46.68-12.07,0,0-62.48-21.59-105.84-17.53-74.31,7.42-126.03,41.94-142.12,54.47-3.7,2.89-9.22,7.34-15.81,13.43-13.78,12.74-32.26,32.61-48.71,60.16h0c-2.46,4.13-4.65,8.55-7.23,12.89-36.32,61.21-32.43,145.47-32.43,145.47Z"/>
      <path class="cls-20" d="M53.48,477.61l39.92-.02.3-49.3c30.89,34.96,73.58,45.81,126.9,42.42,0,0-26.22-18.4-22.67-38.07,44.58,38.78,147.7,46.58,147.7,46.58-3.82-35-9.85-62.25-25-81.95,0,0-9.24-3.87-14.52-7.07-27.93-16.95-31.83-44.94-32.19-48.35-37.48-36.71-90.63-55.23-158.04-55.07-43.43,51.54-64.08,116.84-62.41,190.84Z"/>
      <path class="cls-21" d="M53.48,477.61l39.92-.02.3-49.3c29.4,34.89,76.95,46.29,126.9,42.42,0,0-26.55-19.67-22.67-38.07,29.1,24.65,75.75,36.51,128.57,44.24-88.31-24.12-239.67-116.91-149.64-244.34-34.78,18.46-128.93,99.49-123.39,245.08Z"/>
      <path class="cls-17" d="M53.48,477.62l40.06-.03.51-48.9c12.26,14.43,24.99,22.78,37.66,28.49-92.49-164.71,142.27-270.14,225.35-261.32-51-13.67-102.51.25-144.11,17.94-81.02,33.71-132.21,105.57-149.82,175.07-11.7,43.52-9.94,76.59-9.66,88.75Z"/>
    </g>
    <g id="Eye">
      <ellipse class="cls-10" cx="275.03" cy="235.78" rx="51.48" ry="50.06"/>
      <g>
        <path class="cls-11" d="M277.94,277.93c-27.07,0-49.09-22.02-49.09-49.09s22.02-49.09,49.09-49.09,49.09,22.02,49.09,49.09-22.02,49.09-49.09,49.09Z"/>
        <path d="M277.94,185.75c23.8,0,43.09,19.29,43.09,43.09s-19.29,43.09-43.09,43.09-43.09-19.29-43.09-43.09,19.29-43.09,43.09-43.09M277.94,173.75c-30.38,0-55.09,24.71-55.09,55.09s24.71,55.09,55.09,55.09,55.09-24.71,55.09-55.09-24.71-55.09-55.09-55.09h0Z"/>
      </g>
      <path class="cls-1" d="M273.91,202.82c13.41,15.88-7.68,30.49-18.56,14.27-9.33,14.52.38,35.06,17.55,37.63,40.81,6.12,42.17-56.82,1.01-51.9Z"/>
      <path class="cls-9" d="M254.53,218.44c12.2,17.86,35.51,1.89,21.26-15.81-.62.04-1.25.09-1.89.17,13.41,15.89-7.68,30.49-18.55,14.27-.29.45-.56.9-.81,1.36Z"/>
      <path class="cls-23" d="M241.36,263.22c-2.67-6.13-4.15-12.89-4.15-20.01,0-27.71,22.47-50.19,50.18-50.19,14.59,0,27.72,6.22,36.89,16.16-7.73-17.77-25.43-30.18-46.04-30.18-27.71,0-50.18,22.47-50.18,50.19,0,13.13,5.04,25.08,13.3,34.03Z"/>
    </g>
  </g>
</svg>